<?xml version="1.0" encoding="UTF-8" standalone="no"?>
<!-- Created with Inkscape (http://www.inkscape.org/) -->
<svg
   xmlns:dc="http://purl.org/dc/elements/1.1/"
   xmlns:cc="http://web.resource.org/cc/"
   xmlns:rdf="http://www.w3.org/1999/02/22-rdf-syntax-ns#"
   xmlns:svg="http://www.w3.org/2000/svg"
   xmlns="http://www.w3.org/2000/svg"
   xmlns:xlink="http://www.w3.org/1999/xlink"
   xmlns:sodipodi="http://inkscape.sourceforge.net/DTD/sodipodi-0.dtd"
   xmlns:inkscape="http://www.inkscape.org/namespaces/inkscape"
   width="36.000000px"
   height="36.000000px"
   id="svg2"
   sodipodi:version="0.32"
   inkscape:version="0.42"
   sodipodi:docbase="G:\Projs\Cliparts Stocker\released"
   sodipodi:docname="cross.svg"
   inkscape:export-filename="/datas/wiki/cross.png"
   inkscape:export-xdpi="90.000000"
   inkscape:export-ydpi="90.000000">
  <defs
     id="defs4">
    <linearGradient
       id="linearGradient1378">
      <stop
         style="stop-color:#ff8b8e;stop-opacity:1.0000000;"
         offset="0.0000000"
         id="stop1380" />
      <stop
         style="stop-color:#b42314;stop-opacity:0.72240806;"
         offset="1.0000000"
         id="stop1382" />
    </linearGradient>
    <linearGradient
       id="linearGradient1365">
      <stop
         id="stop1367"
         offset="0.0000000"
         style="stop-color:#f1140c;stop-opacity:1.0000000;" />
      <stop
         id="stop1370"
         offset="1.0000000"
         style="stop-color:#8d1a02;stop-opacity:1.0000000;" />
    </linearGradient>
    <linearGradient
       id="linearGradient1352">
      <stop
         style="stop-color:#982007;stop-opacity:1.0000000;"
         offset="0.0000000"
         id="stop1354" />
      <stop
         style="stop-color:#510f02;stop-opacity:1.0000000;"
         offset="1.0000000"
         id="stop1356" />
    </linearGradient>
    <linearGradient
       id="linearGradient1367">
      <stop
         id="stop1369"
         offset="0.0000000"
         style="stop-color:#f67e36;stop-opacity:1.0000000;" />
      <stop
         id="stop1371"
         offset="1.0000000"
         style="stop-color:#602604;stop-opacity:1.0000000;" />
    </linearGradient>
    <linearGradient
       id="linearGradient1347">
      <stop
         style="stop-color:#f0da27;stop-opacity:1.0000000;"
         offset="0.0000000"
         id="stop1349" />
      <stop
         style="stop-color:#bf4d09;stop-opacity:1.0000000;"
         offset="1.0000000"
         id="stop1351" />
    </linearGradient>
    <linearGradient
       id="linearGradient1315">
      <stop
         style="stop-color:#97ff82;stop-opacity:1.0000000;"
         offset="0.0000000"
         id="stop1317" />
      <stop
         style="stop-color:#ceff24;stop-opacity:0.0000000;"
         offset="1.0000000"
         id="stop1319" />
    </linearGradient>
    <linearGradient
       id="linearGradient2122">
      <stop
         style="stop-color:#2edc32;stop-opacity:1.0000000;"
         offset="0.0000000"
         id="stop2124" />
      <stop
         style="stop-color:#11661d;stop-opacity:1.0000000;"
         offset="1.0000000"
         id="stop2126" />
    </linearGradient>
    <linearGradient
       id="linearGradient1364">
      <stop
         style="stop-color:#236b0d;stop-opacity:1.0000000;"
         offset="0.00000000"
         id="stop1366" />
      <stop
         style="stop-color:#081b04;stop-opacity:1.0000000;"
         offset="1.0000000"
         id="stop1368" />
    </linearGradient>
    <linearGradient
       inkscape:collect="always"
       xlink:href="#linearGradient1364"
       id="linearGradient1341"
       gradientUnits="userSpaceOnUse"
       x1="74.910713"
       y1="32.362179"
       x2="84.910713"
       y2="47.451466" />
    <linearGradient
       inkscape:collect="always"
       xlink:href="#linearGradient2122"
       id="linearGradient1343"
       gradientUnits="userSpaceOnUse"
       x1="73.839287"
       y1="34.428566"
       x2="76.875000"
       y2="43.714283" />
    <linearGradient
       inkscape:collect="always"
       xlink:href="#linearGradient1315"
       id="linearGradient1345"
       gradientUnits="userSpaceOnUse"
       x1="72.946426"
       y1="35.589287"
       x2="85.000000"
       y2="47.375000" />
    <radialGradient
       inkscape:collect="always"
       xlink:href="#linearGradient1347"
       id="radialGradient1353"
       cx="21.959658"
       cy="14.921703"
       fx="21.959658"
       fy="14.921703"
       r="27.500000"
       gradientUnits="userSpaceOnUse"
       gradientTransform="matrix(1.211118e-16,1.330643,-1.347411,2.027373e-5,44.09678,-13.39507)" />
    <radialGradient
       inkscape:collect="always"
       xlink:href="#linearGradient1367"
       id="radialGradient1357"
       gradientUnits="userSpaceOnUse"
       gradientTransform="matrix(1.211118e-16,1.330643,-1.347411,2.027373e-5,44.09678,-13.39507)"
       cx="21.959658"
       cy="14.921703"
       fx="21.959658"
       fy="14.921703"
       r="27.500000" />
    <radialGradient
       inkscape:collect="always"
       xlink:href="#linearGradient1367"
       id="radialGradient1375"
       gradientUnits="userSpaceOnUse"
       gradientTransform="matrix(1.211118e-16,1.330643,-1.347411,2.027373e-5,44.09678,-13.39507)"
       cx="21.959658"
       cy="14.921703"
       fx="21.959658"
       fy="14.921703"
       r="27.500000" />
    <radialGradient
       inkscape:collect="always"
       xlink:href="#linearGradient1367"
       id="radialGradient1381"
       gradientUnits="userSpaceOnUse"
       gradientTransform="matrix(1.211118e-16,1.330643,-1.347411,2.027373e-5,44.09678,-13.39507)"
       cx="21.959658"
       cy="14.921703"
       fx="21.959658"
       fy="14.921703"
       r="27.500000" />
    <radialGradient
       inkscape:collect="always"
       xlink:href="#linearGradient1347"
       id="radialGradient1383"
       gradientUnits="userSpaceOnUse"
       gradientTransform="matrix(1.211118e-16,1.330643,-1.347411,2.027373e-5,44.09678,-13.39507)"
       cx="21.959658"
       cy="14.921703"
       fx="21.959658"
       fy="14.921703"
       r="27.500000" />
    <linearGradient
       inkscape:collect="always"
       xlink:href="#linearGradient1352"
       id="linearGradient1358"
       x1="20.152672"
       y1="13.745695"
       x2="40.305344"
       y2="48.977100"
       gradientUnits="userSpaceOnUse" />
    <linearGradient
       inkscape:collect="always"
       xlink:href="#linearGradient1365"
       id="linearGradient1362"
       gradientUnits="userSpaceOnUse"
       x1="20.152672"
       y1="13.745695"
       x2="40.305344"
       y2="48.977100" />
    <linearGradient
       inkscape:collect="always"
       xlink:href="#linearGradient1365"
       id="linearGradient1374"
       gradientUnits="userSpaceOnUse"
       x1="20.152672"
       y1="13.745695"
       x2="40.305344"
       y2="48.977100" />
    <linearGradient
       inkscape:collect="always"
       xlink:href="#linearGradient1378"
       id="linearGradient1384"
       x1="21.251909"
       y1="17.587786"
       x2="42.748093"
       y2="46.167938"
       gradientUnits="userSpaceOnUse" />
    <linearGradient
       inkscape:collect="always"
       xlink:href="#linearGradient1352"
       id="linearGradient1391"
       gradientUnits="userSpaceOnUse"
       x1="20.152672"
       y1="13.745695"
       x2="40.305344"
       y2="48.977100" />
    <linearGradient
       inkscape:collect="always"
       xlink:href="#linearGradient1365"
       id="linearGradient1393"
       gradientUnits="userSpaceOnUse"
       x1="20.152672"
       y1="13.745695"
       x2="40.305344"
       y2="48.977100" />
    <linearGradient
       inkscape:collect="always"
       xlink:href="#linearGradient1378"
       id="linearGradient1395"
       gradientUnits="userSpaceOnUse"
       x1="21.251909"
       y1="17.587786"
       x2="42.748093"
       y2="46.167938" />
    <linearGradient
       inkscape:collect="always"
       xlink:href="#linearGradient1352"
       id="linearGradient1400"
       gradientUnits="userSpaceOnUse"
       x1="20.152672"
       y1="13.745695"
       x2="40.305344"
       y2="48.977100" />
    <linearGradient
       inkscape:collect="always"
       xlink:href="#linearGradient1378"
       id="linearGradient1402"
       gradientUnits="userSpaceOnUse"
       x1="20.030535"
       y1="13.923663"
       x2="42.748093"
       y2="46.167938" />
    <linearGradient
       inkscape:collect="always"
       xlink:href="#linearGradient1352"
       id="linearGradient1409"
       gradientUnits="userSpaceOnUse"
       x1="20.152672"
       y1="13.745695"
       x2="40.305344"
       y2="48.977100" />
    <linearGradient
       inkscape:collect="always"
       xlink:href="#linearGradient1365"
       id="linearGradient1411"
       gradientUnits="userSpaceOnUse"
       x1="20.152672"
       y1="13.745695"
       x2="40.305344"
       y2="48.977100" />
    <linearGradient
       inkscape:collect="always"
       xlink:href="#linearGradient1378"
       id="linearGradient1413"
       gradientUnits="userSpaceOnUse"
       x1="20.030535"
       y1="13.923663"
       x2="42.748093"
       y2="46.167938" />
    <linearGradient
       inkscape:collect="always"
       xlink:href="#linearGradient1352"
       id="linearGradient1418"
       gradientUnits="userSpaceOnUse"
       x1="20.152672"
       y1="13.745695"
       x2="40.305344"
       y2="48.977100" />
    <linearGradient
       inkscape:collect="always"
       xlink:href="#linearGradient1378"
       id="linearGradient1422"
       gradientUnits="userSpaceOnUse"
       x1="20.152672"
       y1="18.931297"
       x2="43.480919"
       y2="43.603050" />
    <linearGradient
       inkscape:collect="always"
       xlink:href="#linearGradient1352"
       id="linearGradient1429"
       gradientUnits="userSpaceOnUse"
       x1="20.152672"
       y1="13.745695"
       x2="40.305344"
       y2="48.977100" />
    <linearGradient
       inkscape:collect="always"
       xlink:href="#linearGradient1365"
       id="linearGradient1431"
       gradientUnits="userSpaceOnUse"
       x1="20.152672"
       y1="13.745695"
       x2="40.305344"
       y2="48.977100" />
    <linearGradient
       inkscape:collect="always"
       xlink:href="#linearGradient1378"
       id="linearGradient1433"
       gradientUnits="userSpaceOnUse"
       x1="20.152672"
       y1="18.931297"
       x2="43.480919"
       y2="43.603050" />
    <linearGradient
       inkscape:collect="always"
       xlink:href="#linearGradient1378"
       id="linearGradient1436"
       gradientUnits="userSpaceOnUse"
       x1="18.504625"
       y1="17.420588"
       x2="47.843750"
       y2="46.761806"
       gradientTransform="matrix(0.889325,0.000000,0.000000,0.889325,3.541600,3.541600)" />
    <linearGradient
       inkscape:collect="always"
       xlink:href="#linearGradient1365"
       id="linearGradient1439"
       gradientUnits="userSpaceOnUse"
       x1="20.152672"
       y1="13.745695"
       x2="40.305344"
       y2="48.977100"
       gradientTransform="matrix(0.889325,0.000000,0.000000,0.889325,3.541600,3.541600)" />
    <linearGradient
       inkscape:collect="always"
       xlink:href="#linearGradient1352"
       id="linearGradient1442"
       gradientUnits="userSpaceOnUse"
       x1="20.152672"
       y1="13.745695"
       x2="40.305344"
       y2="48.977100"
       gradientTransform="matrix(0.889325,0.000000,0.000000,0.889325,3.541600,3.541600)" />
    <linearGradient
       inkscape:collect="always"
       xlink:href="#linearGradient1352"
       id="linearGradient1449"
       gradientUnits="userSpaceOnUse"
       gradientTransform="matrix(0.889325,0.000000,0.000000,0.889325,3.541600,3.541600)"
       x1="20.152672"
       y1="13.745695"
       x2="40.305344"
       y2="48.977100" />
    <linearGradient
       inkscape:collect="always"
       xlink:href="#linearGradient1365"
       id="linearGradient1451"
       gradientUnits="userSpaceOnUse"
       gradientTransform="matrix(0.889325,0.000000,0.000000,0.889325,3.541600,3.541600)"
       x1="20.152672"
       y1="13.745695"
       x2="40.305344"
       y2="48.977100" />
    <linearGradient
       inkscape:collect="always"
       xlink:href="#linearGradient1378"
       id="linearGradient1453"
       gradientUnits="userSpaceOnUse"
       gradientTransform="matrix(0.889325,0.000000,0.000000,0.889325,3.541600,3.541600)"
       x1="18.504625"
       y1="17.420588"
       x2="47.843750"
       y2="46.761806" />
    <linearGradient
       inkscape:collect="always"
       xlink:href="#linearGradient1378"
       id="linearGradient1456"
       gradientUnits="userSpaceOnUse"
       gradientTransform="matrix(0.889325,0.000000,0.000000,0.889325,3.541593,3.541600)"
       x1="18.504625"
       y1="17.420588"
       x2="47.843750"
       y2="46.761806" />
    <linearGradient
       inkscape:collect="always"
       xlink:href="#linearGradient1365"
       id="linearGradient1459"
       gradientUnits="userSpaceOnUse"
       gradientTransform="matrix(0.889325,0.000000,0.000000,0.889325,-50.24727,-11.63251)"
       x1="20.152672"
       y1="13.745695"
       x2="40.305344"
       y2="48.977100" />
    <linearGradient
       inkscape:collect="always"
       xlink:href="#linearGradient1352"
       id="linearGradient1462"
       gradientUnits="userSpaceOnUse"
       gradientTransform="matrix(0.889325,0.000000,0.000000,0.889325,3.541600,3.541600)"
       x1="20.152672"
       y1="13.745695"
       x2="40.305344"
       y2="48.977100" />
    <linearGradient
       inkscape:collect="always"
       xlink:href="#linearGradient1378"
       id="linearGradient1466"
       gradientUnits="userSpaceOnUse"
       gradientTransform="matrix(0.889325,0.000000,0.000000,0.889325,-32.54864,2.451357)"
       x1="18.504625"
       y1="17.420588"
       x2="47.843750"
       y2="46.761806" />
    <linearGradient
       inkscape:collect="always"
       xlink:href="#linearGradient1365"
       id="linearGradient1470"
       gradientUnits="userSpaceOnUse"
       gradientTransform="matrix(0.889325,0.000000,0.000000,0.889325,-32.54864,2.451357)"
       x1="18.504625"
       y1="17.420588"
       x2="47.843750"
       y2="46.761806" />
    <linearGradient
       inkscape:collect="always"
       xlink:href="#linearGradient1378"
       id="linearGradient1474"
       gradientUnits="userSpaceOnUse"
       gradientTransform="matrix(0.889325,0.000000,0.000000,0.889325,3.541593,3.541600)"
       x1="18.504625"
       y1="17.420588"
       x2="47.843750"
       y2="46.761806" />
    <linearGradient
       inkscape:collect="always"
       xlink:href="#linearGradient1352"
       id="linearGradient1483"
       gradientUnits="userSpaceOnUse"
       gradientTransform="matrix(0.889325,0.000000,0.000000,0.889325,3.541600,3.541600)"
       x1="20.152672"
       y1="13.745695"
       x2="40.305344"
       y2="48.977100" />
    <linearGradient
       inkscape:collect="always"
       xlink:href="#linearGradient1365"
       id="linearGradient1485"
       gradientUnits="userSpaceOnUse"
       gradientTransform="matrix(0.889325,0.000000,0.000000,0.889325,-32.54864,2.451357)"
       x1="18.504625"
       y1="17.420588"
       x2="47.843750"
       y2="46.761806" />
    <linearGradient
       inkscape:collect="always"
       xlink:href="#linearGradient1378"
       id="linearGradient1487"
       gradientUnits="userSpaceOnUse"
       gradientTransform="matrix(0.889325,0.000000,0.000000,0.889325,3.541593,3.541600)"
       x1="18.504625"
       y1="17.420588"
       x2="47.843750"
       y2="46.761806" />
  </defs>
  <sodipodi:namedview
     id="base"
     pagecolor="#ffffff"
     bordercolor="#666666"
     borderopacity="1.0"
     inkscape:pageopacity="0.0"
     inkscape:pageshadow="2"
     inkscape:zoom="14.583333"
     inkscape:cx="18.000000"
     inkscape:cy="18.000000"
     inkscape:document-units="px"
     inkscape:current-layer="layer1"
     showgrid="false"
     inkscape:grid-bbox="true"
     inkscape:grid-points="true"
     inkscape:window-width="1156"
     inkscape:window-height="693"
     inkscape:window-x="0"
     inkscape:window-y="25"
     showguides="false" />
  <metadata
     id="metadata7">
    <rdf:RDF>
      <cc:Work
         rdf:about="">
        <dc:format>image/svg+xml</dc:format>
        <dc:type
           rdf:resource="http://purl.org/dc/dcmitype/StillImage" />
        <dc:title>Cross</dc:title>
        <dc:date>2005-10-27</dc:date>
        <dc:creator>
          <cc:Agent>
            <dc:title>Jean-Victor Balin</dc:title>
          </cc:Agent>
        </dc:creator>
        <dc:description>jean.victor.balin@gmail.com</dc:description>
        <cc:license
           rdf:resource="http://web.resource.org/cc/PublicDomain" />
        <dc:subject>
          <rdf:Bag>
            <rdf:li>icon</rdf:li>
          </rdf:Bag>
        </dc:subject>
      </cc:Work>
      <cc:License
         rdf:about="http://web.resource.org/cc/PublicDomain">
        <cc:permits
           rdf:resource="http://web.resource.org/cc/Reproduction" />
        <cc:permits
           rdf:resource="http://web.resource.org/cc/Distribution" />
        <cc:permits
           rdf:resource="http://web.resource.org/cc/DerivativeWorks" />
      </cc:License>
    </rdf:RDF>
  </metadata>
  <g
     inkscape:label="Calque 1"
     inkscape:groupmode="layer"
     id="layer1">
    <g
       id="g1478"
       transform="translate(-14.00000,-14.00000)">
      <path
         id="path1349"
         d="M 16.025098,21.211331 C 15.649087,21.665095 15.683247,22.331227 16.103703,22.744147 L 25.359556,32.000000 L 16.103703,41.255853 C 15.888705,41.468842 15.767750,41.758927 15.767750,42.061564 C 15.767750,42.364201 15.888705,42.654285 16.103703,42.867275 L 21.134485,47.898057 C 21.347476,48.113055 21.637559,48.234010 21.940197,48.234010 C 22.242833,48.234010 22.532917,48.113055 22.745907,47.898057 L 32.001760,38.642205 L 41.257613,47.898057 C 41.470603,48.113055 41.760687,48.234010 42.063324,48.234010 C 42.365961,48.234010 42.656045,48.113055 42.869035,47.898057 L 47.899817,42.867275 C 48.114816,42.654285 48.235771,42.364201 48.235771,42.061564 C 48.235771,41.758927 48.114816,41.468842 47.899817,41.255853 L 38.643965,32.000000 L 47.899817,22.744147 C 48.114816,22.531158 48.235771,22.241073 48.235771,21.938437 C 48.235771,21.635799 48.114816,21.345715 47.899817,21.132725 L 42.869035,16.101943 C 42.656045,15.886945 42.365961,15.765990 42.063324,15.765990 C 41.760687,15.765990 41.470603,15.886945 41.257613,16.101943 L 32.001760,25.357796 L 22.745907,16.101943 C 22.532917,15.886945 22.242833,15.765990 21.940197,15.765990 C 21.637559,15.765990 21.347476,15.886945 21.134485,16.101943 L 16.103703,21.132725 C 16.076232,21.157627 16.049999,21.183860 16.025098,21.211331 z "
         style="fill:url(#linearGradient1483);fill-opacity:1.0000000;stroke:none;stroke-width:2.0000000;stroke-linecap:round;stroke-linejoin:round;stroke-miterlimit:4.0000000;stroke-opacity:1.0000000" />
      <path
         id="path1468"
         d="M -14.375000,15.843750 C -14.554831,15.890982 -14.717448,15.988553 -14.843750,16.125000 L -18.875000,20.156250 C -19.252158,20.536993 -19.252158,21.150507 -18.875000,21.531250 L -9.5000000,30.906250 L -18.875000,40.281250 C -19.252158,40.661993 -19.252158,41.275507 -18.875000,41.656250 L -14.843750,45.687500 C -14.463007,46.064658 -13.849493,46.064658 -13.468750,45.687500 L -4.0937500,36.312500 L 5.2812500,45.687500 C 5.6619933,46.064658 6.2755067,46.064658 6.6562500,45.687500 L 10.687500,41.656250 C 11.064658,41.275507 11.064658,40.661993 10.687500,40.281250 L 1.3125000,30.906250 L 10.687500,21.531250 C 11.064658,21.150507 11.064658,20.536993 10.687500,20.156250 L 6.6562500,16.125000 C 6.2755067,15.747842 5.6619933,15.747842 5.2812500,16.125000 L -4.0937500,25.500000 L -13.468750,16.125000 C -13.701960,15.880983 -14.044614,15.774642 -14.375000,15.843750 z "
         style="fill:url(#linearGradient1485);fill-opacity:1.0000000;stroke:none;stroke-width:2.0000000;stroke-linecap:round;stroke-linejoin:round;stroke-miterlimit:4.0000000;stroke-opacity:1.0000000"
         transform="translate(36.09375,1.103297)" />
      <path
         id="path1472"
         d="M 21.843750,17.656250 C 21.808294,17.669955 21.776287,17.691292 21.750000,17.718750 L 17.718750,21.750000 C 17.686861,21.785156 17.665242,21.828396 17.656250,21.875000 C 17.640173,21.925843 17.640173,21.980407 17.656250,22.031250 C 17.669955,22.066706 17.691292,22.098713 17.718750,22.125000 L 27.281250,31.687500 C 27.369055,31.771251 27.437500,31.885901 27.437500,32.000000 C 27.437500,32.114099 27.369056,32.228747 27.281250,32.312500 L 17.718750,41.875000 C 17.686861,41.910156 17.665242,41.953396 17.656250,42.000000 C 17.640173,42.050843 17.640173,42.105407 17.656250,42.156250 C 17.669955,42.191706 17.691292,42.223713 17.718750,42.250000 L 21.750000,46.281250 C 21.785156,46.313139 21.828396,46.334758 21.875000,46.343750 C 21.925843,46.359827 21.980407,46.359827 22.031250,46.343750 C 22.066706,46.330045 22.098713,46.308708 22.125000,46.281250 L 31.687500,36.718750 C 31.771251,36.630945 31.885901,36.562500 32.000000,36.562500 C 32.114096,36.562499 32.228746,36.630943 32.312500,36.718750 L 41.875000,46.281250 C 41.910156,46.313139 41.953396,46.334758 42.000000,46.343750 C 42.050843,46.359827 42.105407,46.359827 42.156250,46.343750 C 42.191706,46.330045 42.223713,46.308708 42.250000,46.281250 L 46.281250,42.250000 C 46.313139,42.214844 46.334758,42.171604 46.343750,42.125000 C 46.359827,42.074157 46.359827,42.019593 46.343750,41.968750 C 46.330045,41.933294 46.308708,41.901287 46.281250,41.875000 L 36.718750,32.312500 C 36.630945,32.228749 36.562500,32.114099 36.562500,32.000000 C 36.562499,31.885904 36.630943,31.771254 36.718750,31.687500 L 46.281250,22.125000 C 46.313139,22.089844 46.334758,22.046604 46.343750,22.000000 C 46.359827,21.949157 46.359827,21.894593 46.343750,21.843750 C 46.330045,21.808294 46.308708,21.776287 46.281250,21.750000 L 42.250000,17.718750 C 42.214844,17.686861 42.171604,17.665242 42.125000,17.656250 C 42.074157,17.640173 42.019593,17.640173 41.968750,17.656250 C 41.933294,17.669955 41.901287,17.691292 41.875000,17.718750 L 32.312500,27.281250 C 32.228749,27.369055 32.114099,27.437500 32.000000,27.437500 C 31.885901,27.437500 31.771253,27.369056 31.687500,27.281250 L 22.125000,17.718750 C 22.089844,17.686861 22.046604,17.665242 22.000000,17.656250 C 21.949157,17.640173 21.894593,17.640173 21.843750,17.656250 z "
         style="fill:url(#linearGradient1487);fill-opacity:1.0000000;stroke:none;stroke-width:2.0000000;stroke-linecap:round;stroke-linejoin:round;stroke-miterlimit:4.0000000;stroke-opacity:1.0000000" />
    </g>
  </g>
</svg>
